<mxfile host="app.diagrams.net" modified="2020-08-17T13:48:24.269Z" agent="5.0 (X11; Linux x86_64) AppleWebKit/537.36 (KHTML, like Gecko) Chrome/84.0.4147.125 Safari/537.36" etag="qz0oaDqk2dBAw4dxc2PM" version="13.6.2" type="github">
  <diagram id="ktGB_cQPbOHVWtNHISl3" name="Page-1">
    <mxGraphModel dx="1695" dy="1663" grid="1" gridSize="10" guides="1" tooltips="1" connect="1" arrows="1" fold="1" page="1" pageScale="1" pageWidth="827" pageHeight="1169" math="0" shadow="0">
      <root>
        <mxCell id="0" />
        <mxCell id="1" parent="0" />
        <mxCell id="8utABzLhRv5D9chcV55B-4" style="edgeStyle=orthogonalEdgeStyle;rounded=0;orthogonalLoop=1;jettySize=auto;html=1;entryX=0;entryY=0.5;entryDx=0;entryDy=0;" parent="1" source="8utABzLhRv5D9chcV55B-2" target="8utABzLhRv5D9chcV55B-3" edge="1">
          <mxGeometry relative="1" as="geometry" />
        </mxCell>
        <mxCell id="8utABzLhRv5D9chcV55B-2" value="E-commerce&lt;br&gt;&lt;b&gt;JavaScript&lt;/b&gt;" style="shape=image;html=1;verticalAlign=middle;verticalLabelPosition=middle;labelBackgroundColor=#ffffff;imageAspect=0;aspect=fixed;image=https://cdn3.iconfinder.com/data/icons/glypho-free/64/laptop-128.png;labelPosition=center;align=center;" parent="1" vertex="1">
          <mxGeometry x="-230" y="166" width="128" height="128" as="geometry" />
        </mxCell>
        <mxCell id="8utABzLhRv5D9chcV55B-9" style="edgeStyle=orthogonalEdgeStyle;rounded=0;orthogonalLoop=1;jettySize=auto;html=1;entryX=0.5;entryY=-0.012;entryDx=0;entryDy=0;entryPerimeter=0;" parent="1" source="8utABzLhRv5D9chcV55B-3" target="8utABzLhRv5D9chcV55B-8" edge="1">
          <mxGeometry relative="1" as="geometry" />
        </mxCell>
        <mxCell id="8utABzLhRv5D9chcV55B-11" style="edgeStyle=orthogonalEdgeStyle;rounded=0;orthogonalLoop=1;jettySize=auto;html=1;entryX=0;entryY=0.5;entryDx=0;entryDy=0;" parent="1" source="8utABzLhRv5D9chcV55B-3" target="8utABzLhRv5D9chcV55B-5" edge="1">
          <mxGeometry relative="1" as="geometry" />
        </mxCell>
        <mxCell id="znALP3g9V4AwijVKvdv3-1" style="edgeStyle=orthogonalEdgeStyle;rounded=0;orthogonalLoop=1;jettySize=auto;html=1;entryX=0.5;entryY=1;entryDx=0;entryDy=0;" parent="1" source="8utABzLhRv5D9chcV55B-3" target="8utABzLhRv5D9chcV55B-7" edge="1">
          <mxGeometry relative="1" as="geometry" />
        </mxCell>
        <mxCell id="8utABzLhRv5D9chcV55B-3" value="Catalogo&lt;br&gt;NodeJS / GraphQL&lt;br&gt;&lt;b&gt;Ruan&lt;/b&gt;" style="rounded=0;whiteSpace=wrap;html=1;" parent="1" vertex="1">
          <mxGeometry x="40" y="200" width="120" height="60" as="geometry" />
        </mxCell>
        <mxCell id="znALP3g9V4AwijVKvdv3-2" style="edgeStyle=orthogonalEdgeStyle;rounded=0;orthogonalLoop=1;jettySize=auto;html=1;" parent="1" source="8utABzLhRv5D9chcV55B-5" target="8utABzLhRv5D9chcV55B-13" edge="1">
          <mxGeometry relative="1" as="geometry" />
        </mxCell>
        <mxCell id="8utABzLhRv5D9chcV55B-5" value="Estoque&lt;br&gt;Python&lt;br&gt;&lt;b&gt;Ruan&lt;/b&gt;" style="rounded=0;whiteSpace=wrap;html=1;" parent="1" vertex="1">
          <mxGeometry x="240" y="200" width="120" height="60" as="geometry" />
        </mxCell>
        <mxCell id="8utABzLhRv5D9chcV55B-17" style="edgeStyle=orthogonalEdgeStyle;rounded=0;orthogonalLoop=1;jettySize=auto;html=1;" parent="1" source="8utABzLhRv5D9chcV55B-7" target="8utABzLhRv5D9chcV55B-16" edge="1">
          <mxGeometry relative="1" as="geometry" />
        </mxCell>
        <mxCell id="8utABzLhRv5D9chcV55B-7" value="LogÃ­stica&lt;br&gt;GoLang&lt;br&gt;&lt;b&gt;Ruan&lt;/b&gt;" style="rounded=0;whiteSpace=wrap;html=1;" parent="1" vertex="1">
          <mxGeometry x="40" y="50" width="120" height="60" as="geometry" />
        </mxCell>
        <mxCell id="8utABzLhRv5D9chcV55B-8" value="&lt;br&gt;MySQL&lt;br&gt;&lt;b&gt;Ruan&lt;/b&gt;" style="shape=cylinder2;whiteSpace=wrap;html=1;boundedLbl=1;backgroundOutline=1;size=15;" parent="1" vertex="1">
          <mxGeometry x="70" y="350" width="60" height="80" as="geometry" />
        </mxCell>
        <mxCell id="8utABzLhRv5D9chcV55B-13" value="&lt;br&gt;Postgres&lt;br&gt;&lt;b&gt;Ruan&lt;/b&gt;" style="shape=cylinder2;whiteSpace=wrap;html=1;boundedLbl=1;backgroundOutline=1;size=15;" parent="1" vertex="1">
          <mxGeometry x="500" y="190" width="60" height="80" as="geometry" />
        </mxCell>
        <mxCell id="8utABzLhRv5D9chcV55B-16" value="MongoDB&lt;br&gt;&lt;b&gt;Ruan&lt;/b&gt;" style="shape=cylinder2;whiteSpace=wrap;html=1;boundedLbl=1;backgroundOutline=1;size=15;" parent="1" vertex="1">
          <mxGeometry x="70" y="-130" width="60" height="80" as="geometry" />
        </mxCell>
      </root>
    </mxGraphModel>
  </diagram>
</mxfile>
